<mxfile host="app.diagrams.net" agent="Mozilla/5.0 (Macintosh; Intel Mac OS X 10_15_7) AppleWebKit/537.36 (KHTML, like Gecko) Chrome/130.0.0.0 Safari/537.36" version="25.0.1">
  <diagram name="Page-1" id="yWCYjoiJTsbj9QY9-1-g">
    <mxGraphModel dx="1026" dy="684" grid="1" gridSize="10" guides="1" tooltips="1" connect="1" arrows="1" fold="1" page="1" pageScale="1" pageWidth="827" pageHeight="1169" math="0" shadow="0">
      <root>
        <mxCell id="0" />
        <mxCell id="1" parent="0" />
        <mxCell id="u7slFIZNOe8lxoMVeYs6-2" value="" style="rounded=0;whiteSpace=wrap;html=1;" parent="1" vertex="1">
          <mxGeometry width="820" height="1160" as="geometry" />
        </mxCell>
        <mxCell id="u7slFIZNOe8lxoMVeYs6-3" value="" style="shape=folder;fontStyle=1;spacingTop=10;tabWidth=40;tabHeight=14;tabPosition=left;html=1;whiteSpace=wrap;fillColor=#dae8fc;strokeColor=#6c8ebf;" parent="1" vertex="1">
          <mxGeometry x="50" y="30" width="680" height="560" as="geometry" />
        </mxCell>
        <mxCell id="u7slFIZNOe8lxoMVeYs6-4" value="User interface Sub System" style="text;align=center;fontStyle=1;verticalAlign=middle;spacingLeft=3;spacingRight=3;strokeColor=none;rotatable=0;points=[[0,0.5],[1,0.5]];portConstraint=eastwest;html=1;" parent="1" vertex="1">
          <mxGeometry x="370" y="50" width="60" height="26" as="geometry" />
        </mxCell>
        <mxCell id="u7slFIZNOe8lxoMVeYs6-7" value="" style="html=1;dropTarget=0;whiteSpace=wrap;fontFamily=Times New Roman;spacing=2;" parent="1" vertex="1">
          <mxGeometry x="70" y="90" width="610" height="80" as="geometry" />
        </mxCell>
        <mxCell id="u7slFIZNOe8lxoMVeYs6-8" value="" style="shape=module;jettyWidth=8;jettyHeight=4;fontFamily=Times New Roman;spacing=2;" parent="u7slFIZNOe8lxoMVeYs6-7" vertex="1">
          <mxGeometry x="1" width="20" height="20" relative="1" as="geometry">
            <mxPoint x="-27" y="7" as="offset" />
          </mxGeometry>
        </mxCell>
        <mxCell id="u7slFIZNOe8lxoMVeYs6-9" value="&lt;b&gt;Display Interactive map&lt;/b&gt;" style="html=1;dropTarget=0;whiteSpace=wrap;fontFamily=Times New Roman;spacing=2;" parent="1" vertex="1">
          <mxGeometry x="100" y="118.5" width="142" height="40" as="geometry" />
        </mxCell>
        <mxCell id="u7slFIZNOe8lxoMVeYs6-10" value="" style="shape=module;jettyWidth=8;jettyHeight=4;fontFamily=Times New Roman;spacing=2;" parent="u7slFIZNOe8lxoMVeYs6-9" vertex="1">
          <mxGeometry x="1" width="11" height="20" relative="1" as="geometry">
            <mxPoint x="-18" y="7" as="offset" />
          </mxGeometry>
        </mxCell>
        <mxCell id="u7slFIZNOe8lxoMVeYs6-13" value="&lt;b&gt;Room Selection&amp;nbsp;&lt;/b&gt;" style="html=1;dropTarget=0;whiteSpace=wrap;fontFamily=Times New Roman;spacing=2;" parent="1" vertex="1">
          <mxGeometry x="290" y="118.5" width="142" height="40" as="geometry" />
        </mxCell>
        <mxCell id="u7slFIZNOe8lxoMVeYs6-14" value="" style="shape=module;jettyWidth=8;jettyHeight=4;fontFamily=Times New Roman;spacing=2;" parent="u7slFIZNOe8lxoMVeYs6-13" vertex="1">
          <mxGeometry x="1" width="11" height="20" relative="1" as="geometry">
            <mxPoint x="-18" y="7" as="offset" />
          </mxGeometry>
        </mxCell>
        <mxCell id="u7slFIZNOe8lxoMVeYs6-16" value="&lt;b&gt;Room Floor Plan Interface&lt;/b&gt;" style="html=1;dropTarget=0;whiteSpace=wrap;fontFamily=Times New Roman;spacing=2;" parent="1" vertex="1">
          <mxGeometry x="480" y="116" width="160" height="45" as="geometry" />
        </mxCell>
        <mxCell id="u7slFIZNOe8lxoMVeYs6-17" value="" style="shape=module;jettyWidth=8;jettyHeight=4;fontFamily=Times New Roman;spacing=2;" parent="u7slFIZNOe8lxoMVeYs6-16" vertex="1">
          <mxGeometry x="1" width="11" height="20" relative="1" as="geometry">
            <mxPoint x="-18" y="7" as="offset" />
          </mxGeometry>
        </mxCell>
        <mxCell id="u7slFIZNOe8lxoMVeYs6-18" value="Visitor Navigation Component" style="text;align=center;fontStyle=1;verticalAlign=middle;spacingLeft=3;spacingRight=3;strokeColor=none;rotatable=0;points=[[0,0.5],[1,0.5]];portConstraint=eastwest;html=1;" parent="1" vertex="1">
          <mxGeometry x="237.5" y="90" width="250" height="26" as="geometry" />
        </mxCell>
        <mxCell id="u7slFIZNOe8lxoMVeYs6-19" value="" style="html=1;dropTarget=0;whiteSpace=wrap;fontFamily=Times New Roman;spacing=2;" parent="1" vertex="1">
          <mxGeometry x="70" y="210" width="620" height="90" as="geometry" />
        </mxCell>
        <mxCell id="u7slFIZNOe8lxoMVeYs6-20" value="" style="shape=module;jettyWidth=8;jettyHeight=4;fontFamily=Times New Roman;spacing=2;" parent="u7slFIZNOe8lxoMVeYs6-19" vertex="1">
          <mxGeometry x="1" width="20" height="20" relative="1" as="geometry">
            <mxPoint x="-27" y="7" as="offset" />
          </mxGeometry>
        </mxCell>
        <mxCell id="u7slFIZNOe8lxoMVeYs6-23" value="&lt;b&gt;Room Management option&lt;/b&gt;" style="html=1;dropTarget=0;whiteSpace=wrap;fontFamily=Times New Roman;spacing=2;" parent="1" vertex="1">
          <mxGeometry x="460" y="240" width="160" height="45" as="geometry" />
        </mxCell>
        <mxCell id="u7slFIZNOe8lxoMVeYs6-24" value="" style="shape=module;jettyWidth=8;jettyHeight=4;fontFamily=Times New Roman;spacing=2;" parent="u7slFIZNOe8lxoMVeYs6-23" vertex="1">
          <mxGeometry x="1" width="11" height="20" relative="1" as="geometry">
            <mxPoint x="-18" y="7" as="offset" />
          </mxGeometry>
        </mxCell>
        <mxCell id="u7slFIZNOe8lxoMVeYs6-25" value="&lt;b&gt;Login&lt;/b&gt;" style="html=1;dropTarget=0;whiteSpace=wrap;fontFamily=Times New Roman;spacing=2;" parent="1" vertex="1">
          <mxGeometry x="130" y="240" width="160" height="45" as="geometry" />
        </mxCell>
        <mxCell id="u7slFIZNOe8lxoMVeYs6-26" value="" style="shape=module;jettyWidth=8;jettyHeight=4;fontFamily=Times New Roman;spacing=2;" parent="u7slFIZNOe8lxoMVeYs6-25" vertex="1">
          <mxGeometry x="1" width="11" height="20" relative="1" as="geometry">
            <mxPoint x="-18" y="7" as="offset" />
          </mxGeometry>
        </mxCell>
        <mxCell id="u7slFIZNOe8lxoMVeYs6-27" value="Admin Interface component&lt;div&gt;&lt;br&gt;&lt;/div&gt;" style="text;align=center;fontStyle=1;verticalAlign=middle;spacingLeft=3;spacingRight=3;strokeColor=none;rotatable=0;points=[[0,0.5],[1,0.5]];portConstraint=eastwest;html=1;" parent="1" vertex="1">
          <mxGeometry x="257.5" y="225" width="225" height="15" as="geometry" />
        </mxCell>
        <mxCell id="u7slFIZNOe8lxoMVeYs6-28" value="" style="html=1;dropTarget=0;whiteSpace=wrap;fontFamily=Times New Roman;spacing=2;" parent="1" vertex="1">
          <mxGeometry x="70" y="340" width="620" height="90" as="geometry" />
        </mxCell>
        <mxCell id="u7slFIZNOe8lxoMVeYs6-29" value="" style="shape=module;jettyWidth=8;jettyHeight=4;fontFamily=Times New Roman;spacing=2;" parent="u7slFIZNOe8lxoMVeYs6-28" vertex="1">
          <mxGeometry x="1" width="20" height="20" relative="1" as="geometry">
            <mxPoint x="-27" y="7" as="offset" />
          </mxGeometry>
        </mxCell>
        <mxCell id="u7slFIZNOe8lxoMVeYs6-30" value="Interactive Map Component" style="text;align=center;fontStyle=1;verticalAlign=middle;spacingLeft=3;spacingRight=3;strokeColor=none;rotatable=0;points=[[0,0.5],[1,0.5]];portConstraint=eastwest;html=1;" parent="1" vertex="1">
          <mxGeometry x="262.5" y="350" width="225" height="15" as="geometry" />
        </mxCell>
        <mxCell id="u7slFIZNOe8lxoMVeYs6-31" value="&lt;b&gt;Display Building Layout&lt;/b&gt;" style="html=1;dropTarget=0;whiteSpace=wrap;fontFamily=Times New Roman;spacing=2;" parent="1" vertex="1">
          <mxGeometry x="130" y="370" width="160" height="45" as="geometry" />
        </mxCell>
        <mxCell id="u7slFIZNOe8lxoMVeYs6-32" value="" style="shape=module;jettyWidth=8;jettyHeight=4;fontFamily=Times New Roman;spacing=2;" parent="u7slFIZNOe8lxoMVeYs6-31" vertex="1">
          <mxGeometry x="1" width="11" height="20" relative="1" as="geometry">
            <mxPoint x="-18" y="7" as="offset" />
          </mxGeometry>
        </mxCell>
        <mxCell id="u7slFIZNOe8lxoMVeYs6-33" value="&lt;b&gt;Path&amp;nbsp;&lt;/b&gt;" style="html=1;dropTarget=0;whiteSpace=wrap;fontFamily=Times New Roman;spacing=2;" parent="1" vertex="1">
          <mxGeometry x="470" y="365" width="160" height="45" as="geometry" />
        </mxCell>
        <mxCell id="u7slFIZNOe8lxoMVeYs6-34" value="" style="shape=module;jettyWidth=8;jettyHeight=4;fontFamily=Times New Roman;spacing=2;" parent="u7slFIZNOe8lxoMVeYs6-33" vertex="1">
          <mxGeometry x="1" width="11" height="20" relative="1" as="geometry">
            <mxPoint x="-18" y="7" as="offset" />
          </mxGeometry>
        </mxCell>
        <mxCell id="u7slFIZNOe8lxoMVeYs6-37" value="" style="html=1;dropTarget=0;whiteSpace=wrap;fontFamily=Times New Roman;spacing=2;" parent="1" vertex="1">
          <mxGeometry x="70" y="460" width="620" height="90" as="geometry" />
        </mxCell>
        <mxCell id="u7slFIZNOe8lxoMVeYs6-38" value="" style="shape=module;jettyWidth=8;jettyHeight=4;fontFamily=Times New Roman;spacing=2;" parent="u7slFIZNOe8lxoMVeYs6-37" vertex="1">
          <mxGeometry x="1" width="20" height="20" relative="1" as="geometry">
            <mxPoint x="-27" y="7" as="offset" />
          </mxGeometry>
        </mxCell>
        <mxCell id="u7slFIZNOe8lxoMVeYs6-42" value="Floor Plan Display Component" style="text;align=center;fontStyle=1;verticalAlign=middle;spacingLeft=3;spacingRight=3;strokeColor=none;rotatable=0;points=[[0,0.5],[1,0.5]];portConstraint=eastwest;html=1;" parent="1" vertex="1">
          <mxGeometry x="240" y="470" width="260" height="26" as="geometry" />
        </mxCell>
        <mxCell id="SWk-fIHLivlta5odQJFk-1" value="&lt;b&gt;Floor Plan image&lt;/b&gt;" style="html=1;dropTarget=0;whiteSpace=wrap;fontFamily=Times New Roman;spacing=2;" vertex="1" parent="1">
          <mxGeometry x="120" y="496" width="160" height="45" as="geometry" />
        </mxCell>
        <mxCell id="SWk-fIHLivlta5odQJFk-2" value="" style="shape=module;jettyWidth=8;jettyHeight=4;fontFamily=Times New Roman;spacing=2;" vertex="1" parent="SWk-fIHLivlta5odQJFk-1">
          <mxGeometry x="1" width="11" height="20" relative="1" as="geometry">
            <mxPoint x="-18" y="7" as="offset" />
          </mxGeometry>
        </mxCell>
        <mxCell id="SWk-fIHLivlta5odQJFk-3" value="&lt;b&gt;Room Highlight&lt;/b&gt;" style="html=1;dropTarget=0;whiteSpace=wrap;fontFamily=Times New Roman;spacing=2;" vertex="1" parent="1">
          <mxGeometry x="480" y="496" width="160" height="45" as="geometry" />
        </mxCell>
        <mxCell id="SWk-fIHLivlta5odQJFk-4" value="" style="shape=module;jettyWidth=8;jettyHeight=4;fontFamily=Times New Roman;spacing=2;" vertex="1" parent="SWk-fIHLivlta5odQJFk-3">
          <mxGeometry x="1" width="11" height="20" relative="1" as="geometry">
            <mxPoint x="-18" y="7" as="offset" />
          </mxGeometry>
        </mxCell>
      </root>
    </mxGraphModel>
  </diagram>
</mxfile>
